<svg width="400" height="400" viewBox="0 0 400 400" fill="none" xmlns="http://www.w3.org/2000/svg">
<g clip-path="url(#clip0_142_5)">
<circle cx="200" cy="200" r="200" fill="url(#paint0_linear_142_5)"/>
<g filter="url(#filter0_d_142_5)">
<path d="M139.459 285.162L181.939 105.719H205.67L211.09 135.602L165.826 319H140.338L139.459 285.162ZM117.633 105.719L152.789 285.162L149.859 319H121.441L74.127 105.719H117.633ZM248.443 284.43L283.16 105.719H326.666L279.498 319H251.08L248.443 284.43ZM219 105.719L261.773 285.895L260.602 319H235.113L189.557 135.455L195.416 105.719H219Z" fill="url(#paint1_linear_142_5)"/>
</g>
</g>
<defs>
<filter id="filter0_d_142_5" x="39.127" y="75.7188" width="322.539" height="283.281" filterUnits="userSpaceOnUse" color-interpolation-filters="sRGB">
<feFlood flood-opacity="0" result="BackgroundImageFix"/>
<feColorMatrix in="SourceAlpha" type="matrix" values="0 0 0 0 0 0 0 0 0 0 0 0 0 0 0 0 0 0 127 0" result="hardAlpha"/>
<feOffset dy="5"/>
<feGaussianBlur stdDeviation="17.5"/>
<feComposite in2="hardAlpha" operator="out"/>
<feColorMatrix type="matrix" values="0 0 0 0 0 0 0 0 0 0 0 0 0 0 0 0 0 0 0.75 0"/>
<feBlend mode="normal" in2="BackgroundImageFix" result="effect1_dropShadow_142_5"/>
<feBlend mode="normal" in="SourceGraphic" in2="effect1_dropShadow_142_5" result="shape"/>
</filter>
<linearGradient id="paint0_linear_142_5" x1="0" y1="200" x2="400" y2="200" gradientUnits="userSpaceOnUse">
<stop stop-color="#6EE7B7"/>
<stop offset="1" stop-color="#A76BF4"/>
</linearGradient>
<linearGradient id="paint1_linear_142_5" x1="200" y1="319" x2="200" y2="107" gradientUnits="userSpaceOnUse">
<stop stop-color="#6EE7B7"/>
<stop offset="1" stop-color="#A76BF4"/>
</linearGradient>
<clipPath id="clip0_142_5">
<rect width="400" height="400" fill="white"/>
</clipPath>
</defs>
</svg>
