<svg width="50" height="50" viewBox="0 0 50 50" fill="none" xmlns="http://www.w3.org/2000/svg">
<path d="M11.9015 10.4854C11.2699 8.89228 11.2952 7.07187 11.5756 5.40628C13.5062 5.97806 15.3193 6.88262 16.9313 8.07821C17.6387 8.6126 18.5658 8.7849 19.4298 8.52769C21.6468 7.87204 23.9493 7.54222 26.2634 7.54882C28.6912 7.54882 30.9977 7.89842 33.092 8.5252C33.956 8.7849 34.8831 8.6101 35.588 8.07571C37.1992 6.88038 39.0115 5.97583 40.9412 5.40379C41.2216 7.06937 41.2443 8.88978 40.6178 10.4804C40.2388 11.4393 40.4283 12.5431 41.1433 13.3272C42.9723 15.3324 43.9474 17.6372 43.9474 20.0345C43.9474 25.3134 38.9706 30.4899 30.9775 32.0656C28.9767 32.4602 28.196 34.9498 29.727 36.3757C30.7097 37.2896 31.316 38.5781 31.316 40.0115V47.5029C31.316 48.1652 31.5822 48.8003 32.0559 49.2686C32.5297 49.7369 33.1723 50 33.8423 50C34.5123 50 35.1549 49.7369 35.6286 49.2686C36.1024 48.8003 36.3686 48.1652 36.3686 47.5029V40.0115C36.3686 38.5881 36.0654 37.2347 35.5248 36.0086C43.1466 33.3941 49 27.5084 49 20.0345C49 16.6708 47.7773 13.5794 45.7487 10.9899C46.2792 8.94222 46.2312 6.87959 46.0291 5.29641C45.8497 3.87804 45.5996 2.02018 44.5891 0.911453C43.086 -0.734154 40.5976 0.234731 38.8292 0.831545C36.9322 1.46604 35.1274 2.34333 33.4608 3.44104C31.1089 2.84776 28.6907 2.54992 26.2634 2.55456C23.7523 2.55456 21.3296 2.8667 19.061 3.44354C17.3945 2.3458 15.5897 1.46851 13.6926 0.834042C11.9242 0.234732 9.43332 -0.734154 7.93018 0.911453C6.89946 2.04015 6.68472 3.75069 6.5003 5.20402L6.48767 5.29891C6.28557 6.88458 6.2401 8.94971 6.77062 10.9999C4.74959 13.5869 3.52686 16.6733 3.52686 20.0345C3.52686 27.5059 9.38027 33.3941 17.0021 36.0086C16.4504 37.2554 16.1632 38.6007 16.1583 39.9615L15.7339 40.0464C13.9225 40.2937 12.763 40.0714 11.9748 39.7418C10.0548 38.9377 9.06448 36.9125 7.85692 35.3643C7.10409 34.4029 6.00768 33.2018 4.32517 32.6475C4.01033 32.5438 3.67793 32.5025 3.34694 32.5259C3.01595 32.5492 2.69286 32.6368 2.3961 32.7836C1.79678 33.08 1.34114 33.5996 1.12942 34.2281C0.917696 34.8566 0.967231 35.5425 1.26713 36.1349C1.56702 36.7273 2.09272 37.1777 2.72856 37.387C4.13823 37.8515 5.11337 40.2387 6.00768 41.2975C6.94998 42.4162 8.20302 43.5849 9.99921 44.339C11.7221 45.0632 13.7457 45.3204 16.1583 45.0282V47.5029C16.1583 48.1652 16.4245 48.8003 16.8982 49.2686C17.372 49.7369 18.0146 50 18.6846 50C19.3546 50 19.9972 49.7369 20.4709 49.2686C20.9447 48.8003 21.2109 48.1652 21.2109 47.5029V40.0115C21.2109 38.5781 21.8172 37.2896 22.7999 36.3757C24.3333 34.9473 23.5502 32.4602 21.5494 32.0656C13.5537 30.4899 8.57944 25.3134 8.57944 20.0345C8.57944 17.6422 9.55205 15.3374 11.3786 13.3322C12.0935 12.5481 12.2804 11.4443 11.9015 10.4854Z" fill="white"/>
</svg>
