<svg width="50" height="47" viewBox="0 0 50 47" fill="none" xmlns="http://www.w3.org/2000/svg">
<path d="M10.4932 5.22454C10.4925 6.60949 9.93905 7.93743 8.95463 8.91624C7.97022 9.89506 6.63545 10.4446 5.24397 10.4439C3.85249 10.4432 2.51827 9.89234 1.53484 8.91255C0.551401 7.93276 -0.000695084 6.60426 6.56772e-07 5.21932C0.000696398 3.83438 0.554128 2.50644 1.53855 1.52762C2.52296 0.54881 3.85773 -0.000691818 5.24921 6.53685e-07C6.6407 0.000693125 7.97491 0.551523 8.95834 1.53132C9.94178 2.51111 10.4939 3.8396 10.4932 5.22454ZM10.6506 14.3107H0.157398V47H10.6506V14.3107ZM27.2298 14.3107H16.7891V47H27.1249V29.846C27.1249 20.2898 39.638 19.4021 39.638 29.846V47H50V26.295C50 10.1854 31.4795 10.7859 27.1249 18.6971L27.2298 14.3107Z" fill="white"/>
</svg>
